<svg width="148" height="40" viewBox="0 0 148 40" fill="none" xmlns="http://www.w3.org/2000/svg">
<path d="M29.1957 17.6715V36.6309C29.1957 36.763 29.1626 36.9942 28.9969 37.0603C28.9969 37.0603 24.8545 40 18.0278 40C9.77609 40 0 37.4236 0 20.446C0 3.46842 8.54993 -0.0327998 16.901 0.000230517C24.1254 0.000230517 27.0416 1.61872 27.5056 1.91599C27.6382 2.08114 27.7044 2.21327 27.7044 2.37842L26.3126 8.25782C26.3126 8.5551 26.0143 8.91843 25.6498 8.81934C24.4568 8.456 22.6673 7.72934 18.4586 7.72934C13.5871 7.72934 8.3511 9.11661 8.3511 20.0497C8.3511 30.9827 13.322 32.2709 16.901 32.2709C19.9498 32.2709 21.0434 31.9076 21.0434 31.9076V24.3106H16.172C15.8074 24.3106 15.5423 24.0463 15.5423 23.7491V17.6715C15.5423 17.3742 15.8074 17.11 16.172 17.11H28.5661C28.9306 17.11 29.1957 17.3742 29.1957 17.6715ZM148 25.3676C148 36.697 144.322 39.9339 137.893 39.9339C132.458 39.9339 129.541 37.1924 129.541 37.1924C129.541 37.1924 129.409 38.7118 129.243 38.91C129.144 39.1082 128.978 39.1742 128.779 39.1742H123.875C123.543 39.1742 123.245 38.91 123.245 38.6127L123.311 1.91599C123.311 1.61872 123.576 1.35448 123.875 1.35448H130.933C131.232 1.35448 131.497 1.61872 131.497 1.91599V14.3684C131.497 14.3684 134.214 12.6178 138.191 12.6178L138.158 12.5518C142.134 12.5518 148 14.0381 148 25.3676ZM91.7295 1.42054C92.0278 1.42054 92.2929 1.68478 92.2929 1.98205V38.6788C92.2929 38.9761 92.0278 39.2403 91.7295 39.2403H84.6708C84.3726 39.2403 84.1075 38.9761 84.1075 38.6788L84.1738 22.9894H73.2047V38.6788C73.2047 38.9761 72.9395 39.2403 72.6413 39.2403H65.5826C65.3175 39.2403 65.0193 38.9761 65.0193 38.6788V1.98205C65.0193 1.68478 65.2844 1.42054 65.5826 1.42054H72.6413C72.9395 1.42054 73.2047 1.68478 73.2047 1.98205V15.4915H84.1738V1.98205C84.1738 1.68478 84.4389 1.42054 84.7371 1.42054H91.7295ZM119.103 13.4436C119.467 13.4436 119.732 13.7078 119.732 14.0051L119.666 38.6788C119.666 38.9761 119.467 39.2403 119.103 39.2403H114.662C114.43 39.2403 114.198 39.1082 114.132 38.943C114.032 38.7448 113.867 37.4567 113.867 37.4567C113.867 37.4567 110.122 40 105.515 40C99.9149 40 95.8388 38.1833 95.8388 30.9167V14.0381C95.8388 13.7409 96.1039 13.4766 96.4021 13.4766H103.494C103.792 13.4766 104.057 13.7409 104.057 14.0381V29.7276C104.057 32.2048 104.786 33.3279 107.272 33.3279C109.757 33.3279 111.58 32.0397 111.58 32.0397V14.0712C111.58 13.7078 111.779 13.4436 112.143 13.4436H119.103ZM61.4203 33.166H61.4369C61.5713 33.1957 61.6912 33.2708 61.7763 33.3786C61.8615 33.4863 61.9067 33.6201 61.9042 33.7573V38.7118C61.9042 38.943 61.8047 39.1742 61.6059 39.2403C61.2745 39.4055 59.1536 39.967 57.3972 39.967C53.5531 39.967 47.9194 39.1412 47.9194 31.0818V20.2478H44.2409C43.9427 20.2478 43.6776 19.9836 43.6776 19.6203V15.1281C43.6776 14.8639 43.8433 14.6327 44.1084 14.5666C44.3404 14.5336 47.9525 13.6418 47.9525 13.6418V6.47418C47.9525 6.20994 48.1182 6.04479 48.4165 6.04479H55.5746C55.8728 6.04479 56.0385 6.20994 56.0385 6.47418V13.4436H61.3077C61.5728 13.4436 61.8379 13.7078 61.8379 14.0051V19.6203C61.8379 19.9836 61.6059 20.2478 61.3077 20.2478H56.0385V30.5896C56.0385 32.1421 56.9333 33.3312 59.5181 33.3312C60.3367 33.3312 61.1121 33.1693 61.4203 33.166ZM40.5625 13.4106C40.8607 13.4106 41.1258 13.6748 41.1258 13.9721V38.3155C41.1258 38.91 40.9601 39.2073 40.2974 39.2073H33.9346C33.3712 39.2073 32.9404 38.9761 32.9404 38.3155V14.0712C32.9404 13.7078 33.2056 13.4106 33.5038 13.4106H40.5625ZM139.947 25.896C139.947 19.9175 137.528 19.1248 134.976 19.3891C132.988 19.5212 131.397 20.5121 131.397 20.5121V32.1388C131.397 32.1388 133.021 33.2618 135.44 33.3279C138.854 33.427 139.947 32.2048 139.947 25.896ZM37.0828 2.2463C39.5683 2.2463 41.5898 4.26115 41.5898 6.80449C41.5898 9.34782 39.5683 11.3627 37.0828 11.3627C34.5311 11.3627 32.5096 9.34782 32.5096 6.80449C32.5096 4.26115 34.5311 2.2463 37.0828 2.2463ZM61.4071 33.1297L61.4402 33.1627H61.4369L61.4203 33.1594V33.1627C61.3905 33.1594 61.3706 33.1264 61.3408 33.1264L61.4071 33.1297Z" fill="#242424"/>
</svg>
