<svg width="16" height="16" viewBox="0 0 16 16" fill="none" xmlns="http://www.w3.org/2000/svg">
<path d="M8 16C6.13333 16 4.48148 15.4335 3.04444 14.3004C1.60741 13.1674 0.674074 11.7191 0.244444 9.95555C0.185185 9.73333 0.22963 9.52977 0.377778 9.34489C0.525926 9.16 0.725926 9.05244 0.977778 9.02222C1.21481 8.99259 1.42963 9.03703 1.62222 9.15555C1.81481 9.27407 1.94815 9.45185 2.02222 9.68889C2.37778 11.0222 3.11111 12.1111 4.22222 12.9556C5.33333 13.8 6.59259 14.2222 8 14.2222C9.73333 14.2222 11.2038 13.6187 12.4116 12.4116C13.6193 11.2044 14.2228 9.73392 14.2222 8C14.2216 6.26607 13.6181 4.79585 12.4116 3.58933C11.205 2.38281 9.73452 1.77896 8 1.77778C6.97778 1.77778 6.02222 2.01481 5.13333 2.48889C4.24444 2.96296 3.4963 3.61481 2.88889 4.44444H4.44444C4.6963 4.44444 4.90756 4.52978 5.07822 4.70044C5.24889 4.87111 5.33393 5.08207 5.33333 5.33333C5.33274 5.58459 5.24741 5.79585 5.07733 5.96711C4.90726 6.13837 4.6963 6.22341 4.44444 6.22222H0.888889C0.637037 6.22222 0.426074 6.13689 0.256 5.96622C0.085926 5.79555 0.000592593 5.58459 0 5.33333V1.77778C0 1.52593 0.0853334 1.31496 0.256 1.14489C0.426667 0.974815 0.63763 0.889481 0.888889 0.888889C1.14015 0.888296 1.35141 0.973629 1.52267 1.14489C1.69393 1.31615 1.77896 1.52711 1.77778 1.77778V2.97778C2.53333 2.02963 3.4557 1.2963 4.54489 0.777778C5.63407 0.259259 6.78578 0 8 0C9.11111 0 10.152 0.211259 11.1227 0.633778C12.0933 1.0563 12.9378 1.62637 13.656 2.344C14.3742 3.06163 14.9446 3.90607 15.3671 4.87733C15.7896 5.84859 16.0006 6.88948 16 8C15.9994 9.11052 15.7884 10.1514 15.3671 11.1227C14.9458 12.0939 14.3754 12.9384 13.656 13.656C12.9366 14.3736 12.0921 14.944 11.1227 15.3671C10.1532 15.7902 9.1123 16.0012 8 16ZM8.88889 7.64444L11.1111 9.86666C11.2741 10.0296 11.3556 10.237 11.3556 10.4889C11.3556 10.7407 11.2741 10.9481 11.1111 11.1111C10.9481 11.2741 10.7407 11.3556 10.4889 11.3556C10.237 11.3556 10.0296 11.2741 9.86667 11.1111L7.37778 8.62222C7.28889 8.53333 7.22222 8.43348 7.17778 8.32266C7.13333 8.21185 7.11111 8.09689 7.11111 7.97778V4.44444C7.11111 4.19259 7.19644 3.98163 7.36711 3.81155C7.53778 3.64148 7.74874 3.55615 8 3.55555C8.25126 3.55496 8.46252 3.6403 8.63378 3.81155C8.80504 3.98281 8.89007 4.19378 8.88889 4.44444V7.64444Z" fill="black"/>
</svg>
