<svg width="15" height="16" viewBox="0 0 15 16" fill="none" xmlns="http://www.w3.org/2000/svg">
<path d="M0 14.1714V5.94286C0 5.65333 0.0665623 5.37905 0.199687 5.12C0.332812 4.86095 0.51625 4.64762 0.75 4.48L6.375 0.365714C6.70312 0.121905 7.07812 0 7.5 0C7.92187 0 8.29687 0.121905 8.625 0.365714L14.25 4.48C14.4844 4.64762 14.6681 4.86095 14.8012 5.12C14.9344 5.37905 15.0006 5.65333 15 5.94286V14.1714C15 14.6743 14.8162 15.1049 14.4487 15.4633C14.0812 15.8217 13.64 16.0006 13.125 16H10.3125C10.0469 16 9.82437 15.9122 9.645 15.7367C9.46562 15.5611 9.37562 15.3441 9.375 15.0857V10.5143C9.375 10.2552 9.285 10.0382 9.105 9.86331C8.925 9.68838 8.7025 9.60061 8.4375 9.6H6.5625C6.29687 9.6 6.07437 9.68777 5.895 9.86331C5.71562 10.0389 5.62562 10.2558 5.625 10.5143V15.0857C5.625 15.3448 5.535 15.5621 5.355 15.7376C5.175 15.9131 4.9525 16.0006 4.6875 16H1.875C1.35937 16 0.918125 15.8211 0.55125 15.4633C0.184375 15.1055 0.000625 14.6749 0 14.1714Z" fill="black"/>
</svg>
