<svg width="15" height="14" viewBox="0 0 15 14" fill="none" xmlns="http://www.w3.org/2000/svg">
<path d="M7.46721 0C5.8507 0 4.59419 6.41918e-08 3.61605 0.107696C2.62674 0.217546 1.84326 0.445143 1.21814 0.959212C0.576279 1.48764 0.276279 2.17474 0.134651 3.04134C-3.11885e-08 3.86844 0 4.92099 0 6.23344V6.36483C0 7.64426 3.11885e-08 8.52952 0.139535 9.18934C0.214884 9.54474 0.333488 9.85347 0.519767 10.1392C0.703953 10.4207 0.938372 10.6576 1.21814 10.8873C1.65837 11.2499 2.17744 11.4689 2.7907 11.6053V13.462C2.79078 13.5563 2.81494 13.649 2.86077 13.7307C2.9066 13.8124 2.97249 13.8803 3.05183 13.9276C3.13117 13.9748 3.22119 13.9998 3.31286 14C3.40454 14.0002 3.49465 13.9756 3.57419 13.9287C3.98302 13.6882 4.34512 13.4261 4.67651 13.1791L4.8886 13.0204C5.12459 12.8386 5.36562 12.6639 5.6114 12.4963C6.20023 12.1029 6.76256 11.8466 7.5 11.8466H7.53279C9.1493 11.8466 10.4058 11.8466 11.384 11.7389C12.3733 11.629 13.1567 11.4014 13.7819 10.8873C14.0609 10.6576 14.296 10.4207 14.4795 10.1392C14.6665 9.85347 14.7851 9.54474 14.8605 9.18934C15 8.52952 15 7.64426 15 6.36483V6.23344C15 4.92099 15 3.86844 14.8653 3.04205C14.7237 2.17474 14.4237 1.48764 13.7819 0.959212C13.1567 0.444425 12.3733 0.217546 11.384 0.108414C10.4058 2.13973e-08 9.1493 0 7.53279 0H7.46721Z" fill="black"/>
</svg>
