<svg width="16" height="22" viewBox="0 0 16 22" fill="none" xmlns="http://www.w3.org/2000/svg">
<path d="M1.43433 4.95789C1.43433 3.71781 1.43433 3.09777 1.6757 2.62388C1.888 2.20722 2.22675 1.86847 2.64341 1.65617C3.1173 1.41479 3.73734 1.41479 4.97742 1.41479H11.1778C12.4179 1.41479 13.038 1.41479 13.5119 1.65617C13.9285 1.86847 14.2673 2.20722 14.4796 2.62388C14.7209 3.09777 14.7209 3.71781 14.7209 4.95789V19.6894C14.7209 20.2275 14.7209 20.4966 14.6091 20.6439C14.5608 20.7079 14.4991 20.7607 14.4284 20.7985C14.3577 20.8364 14.2795 20.8584 14.1994 20.8631C14.0145 20.8742 13.7909 20.7247 13.3436 20.4268L8.07764 16.9158L2.81171 20.4257C2.36439 20.7247 2.14073 20.8742 1.95472 20.8631C1.87482 20.8582 1.79691 20.8361 1.72638 20.7983C1.65585 20.7605 1.59436 20.7078 1.54616 20.6439C1.43433 20.4966 1.43433 20.2275 1.43433 19.6894V4.95789Z" fill="#CBCBCB" stroke="#CBCBCB" stroke-width="1.5" stroke-linecap="round" stroke-linejoin="round"/>
</svg>
