<svg width="16" height="16" viewBox="0 0 16 16" fill="none" xmlns="http://www.w3.org/2000/svg">
<path d="M15.0387 5.20625C15.1387 5.47813 15.0543 5.78125 14.8387 5.975L13.4856 7.20625C13.5199 7.46563 13.5387 7.73125 13.5387 8C13.5387 8.26875 13.5199 8.53437 13.4856 8.79375L14.8387 10.025C15.0543 10.2187 15.1387 10.5219 15.0387 10.7937C14.9012 11.1656 14.7356 11.5219 14.5449 11.8656L14.3981 12.1187C14.1918 12.4625 13.9606 12.7875 13.7074 13.0938C13.5231 13.3187 13.2168 13.3937 12.9418 13.3062L11.2012 12.7531C10.7824 13.075 10.3199 13.3438 9.82618 13.5469L9.43556 15.3313C9.37306 15.6156 9.15431 15.8406 8.86681 15.8875C8.43556 15.9594 7.9918 15.9969 7.53868 15.9969C7.08555 15.9969 6.6418 15.9594 6.21055 15.8875C5.92305 15.8406 5.7043 15.6156 5.6418 15.3313L5.25118 13.5469C4.75743 13.3438 4.29493 13.075 3.87618 12.7531L2.13868 13.3094C1.86368 13.3969 1.55743 13.3188 1.37305 13.0969C1.11993 12.7906 0.88868 12.4656 0.68243 12.1219L0.535555 11.8687C0.34493 11.525 0.179305 11.1687 0.0418049 10.7969C-0.0581951 10.525 0.0261799 10.2219 0.241805 10.0281L1.59493 8.79688C1.56055 8.53438 1.5418 8.26875 1.5418 8C1.5418 7.73125 1.56055 7.46563 1.59493 7.20625L0.241805 5.975C0.0261799 5.78125 -0.0581951 5.47813 0.0418049 5.20625C0.179305 4.83438 0.34493 4.47813 0.535555 4.13438L0.68243 3.88125C0.88868 3.5375 1.11993 3.2125 1.37305 2.90625C1.55743 2.68125 1.86368 2.60625 2.13868 2.69375L3.8793 3.24688C4.29805 2.925 4.76055 2.65625 5.2543 2.45312L5.64493 0.66875C5.70743 0.384375 5.92618 0.159375 6.21368 0.1125C6.64493 0.0375 7.08868 0 7.5418 0C7.99493 0 8.43868 0.0375 8.86993 0.109375C9.15743 0.15625 9.37618 0.38125 9.43868 0.665625L9.82931 2.45C10.3231 2.65313 10.7856 2.92188 11.2043 3.24375L12.9449 2.69062C13.2199 2.60312 13.5262 2.68125 13.7106 2.90313C13.9637 3.20938 14.1949 3.53437 14.4012 3.87812L14.5481 4.13125C14.7387 4.475 14.9043 4.83125 15.0418 5.20312L15.0387 5.20625ZM7.5418 10.5C8.20485 10.5 8.84073 10.2366 9.30957 9.76777C9.77841 9.29893 10.0418 8.66304 10.0418 8C10.0418 7.33696 9.77841 6.70107 9.30957 6.23223C8.84073 5.76339 8.20485 5.5 7.5418 5.5C6.87876 5.5 6.24288 5.76339 5.77404 6.23223C5.3052 6.70107 5.0418 7.33696 5.0418 8C5.0418 8.66304 5.3052 9.29893 5.77404 9.76777C6.24288 10.2366 6.87876 10.5 7.5418 10.5Z" fill="black"/>
</svg>
