<svg width="23" height="20" viewBox="0 0 23 20" fill="none" xmlns="http://www.w3.org/2000/svg">
<path d="M13.5605 0.540771C14.0609 0.332312 14.6319 0.444513 15.0156 0.827881L21.7666 7.57886C22.2879 8.10017 22.2879 8.94719 21.7666 9.46851L15.0156 16.2195C14.6319 16.5988 14.0608 16.7159 13.5605 16.5076C13.0602 16.2991 12.7346 15.811 12.7344 15.2732V11.8816H8.66895C6.42407 11.8816 4.60254 13.7031 4.60254 15.948C4.60259 17.2312 5.14474 17.9775 5.54395 18.3513C5.77423 18.5649 5.95211 18.8524 5.95215 19.1628C5.95215 19.61 5.58794 19.9783 5.13672 19.9783C5.02043 19.9782 4.90516 19.9575 4.80273 19.9001L4.625 19.7996C3.59877 19.1938 0.583008 17.0411 0.583008 12.5681C0.583016 8.47565 3.90072 5.15808 7.99316 5.15796H12.7344V1.76636C12.7345 1.23229 13.0511 0.756102 13.5391 0.542725V0.549561L13.5605 0.540771Z" fill="#CBCBCB" stroke="#CBCBCB" stroke-width="0.03125"/>
</svg>
