<svg width="15" height="17" viewBox="0 0 15 17" fill="none" xmlns="http://www.w3.org/2000/svg">
<path d="M7.72059 14.9244H7.5C5.41176 14.9244 3.63971 14.2002 2.18382 12.7516C0.727941 11.3031 0 9.53993 0 7.46222C0 5.3845 0.727941 3.62137 2.18382 2.17282C3.63971 0.724274 5.41176 0 7.5 0C8.54412 0 9.51853 0.193725 10.4232 0.581175C11.3279 0.968625 12.1221 1.50269 12.8056 2.18336C13.4891 2.86403 14.0256 3.65415 14.415 4.55371C14.8044 5.45327 14.9994 6.42277 15 7.46222C15 9.42288 14.4447 11.2445 13.3341 12.9272C12.2235 14.6099 10.8229 15.9267 9.13235 16.8778C8.98529 16.9509 8.83824 16.9913 8.69118 16.9989C8.54412 17.0065 8.41176 16.9735 8.29412 16.8997C8.17647 16.826 8.07353 16.7309 7.98529 16.6144C7.89706 16.4979 7.84559 16.3589 7.83088 16.1974L7.72059 14.9244ZM7.47794 12.2688C7.72794 12.2688 7.94118 12.181 8.11765 12.0054C8.29412 11.8298 8.38235 11.6176 8.38235 11.3689C8.38235 11.1202 8.29412 10.908 8.11765 10.7324C7.94118 10.5568 7.72794 10.4691 7.47794 10.4691C7.22794 10.4691 7.01471 10.5568 6.83824 10.7324C6.66176 10.908 6.57353 11.1202 6.57353 11.3689C6.57353 11.6176 6.66176 11.8298 6.83824 12.0054C7.01471 12.181 7.22794 12.2688 7.47794 12.2688ZM5.55882 5.59666C5.72059 5.66982 5.88235 5.67363 6.04412 5.60808C6.20588 5.54253 6.33824 5.4363 6.44118 5.2894C6.57353 5.11381 6.72794 4.97832 6.90441 4.88292C7.08088 4.78752 7.27941 4.74012 7.5 4.7407C7.85294 4.7407 8.13971 4.83932 8.36029 5.03656C8.58088 5.23379 8.69118 5.48634 8.69118 5.79419C8.69118 5.98441 8.63618 6.17462 8.52618 6.36483C8.41618 6.55505 8.22118 6.78916 7.94118 7.06716C7.57353 7.38906 7.30147 7.69282 7.125 7.97843C6.94853 8.26404 6.86029 8.55287 6.86029 8.84492C6.86029 9.0205 6.92294 9.17063 7.04824 9.29529C7.17353 9.41995 7.32412 9.48199 7.5 9.48141C7.67588 9.48082 7.82294 9.41498 7.94118 9.28388C8.05941 9.15278 8.14765 8.99914 8.20588 8.82298C8.27941 8.57423 8.41176 8.34744 8.60294 8.1426C8.79412 7.93775 8.97059 7.75485 9.13235 7.5939C9.44118 7.28664 9.67294 6.97937 9.82765 6.6721C9.98235 6.36483 10.0594 6.05757 10.0588 5.7503C10.0588 5.07723 9.82706 4.53586 9.36353 4.12617C8.9 3.71648 8.27882 3.51163 7.5 3.51163C7.02941 3.51163 6.59559 3.62517 6.19853 3.85226C5.80147 4.07935 5.47794 4.39013 5.22794 4.7846C5.13971 4.94555 5.12853 5.10299 5.19441 5.25691C5.26029 5.41084 5.38176 5.52409 5.55882 5.59666Z" fill="black"/>
</svg>
