<svg width="16" height="16" viewBox="0 0 16 16" fill="none" xmlns="http://www.w3.org/2000/svg">
<path d="M0 3.42857C0 2.51926 0.361224 1.64719 1.00421 1.00421C1.64719 0.361224 2.51926 0 3.42857 0H12.5714C13.4807 0 14.3528 0.361224 14.9958 1.00421C15.6388 1.64719 16 2.51926 16 3.42857V12.5714C16 13.4807 15.6388 14.3528 14.9958 14.9958C14.3528 15.6388 13.4807 16 12.5714 16H3.42857C2.51926 16 1.64719 15.6388 1.00421 14.9958C0.361224 14.3528 0 13.4807 0 12.5714V3.42857ZM7.26171 4.69029C7.36901 4.58299 7.42929 4.43746 7.42929 4.28571C7.42929 4.13397 7.36901 3.98844 7.26171 3.88114C7.15442 3.77384 7.00889 3.71356 6.85714 3.71356C6.7054 3.71356 6.55987 3.77384 6.45257 3.88114L4.83886 5.49486L4.38514 5.08114C4.27241 4.98479 4.12663 4.93603 3.97861 4.94518C3.8306 4.95433 3.69193 5.02067 3.59192 5.13017C3.49192 5.23968 3.4384 5.38377 3.44268 5.53201C3.44696 5.68025 3.5087 5.82102 3.61486 5.92457L4.472 6.70743C4.5806 6.80631 4.72311 6.85957 4.86995 6.85617C5.01678 6.85276 5.15667 6.79295 5.26057 6.68914L7.26171 4.69029ZM7.26171 9.59543C7.20863 9.54221 7.14558 9.49999 7.07615 9.47119C7.00673 9.44238 6.93231 9.42755 6.85714 9.42755C6.78198 9.42755 6.70756 9.44238 6.63813 9.47119C6.56871 9.49999 6.50565 9.54221 6.45257 9.59543L4.83886 11.2091L4.38514 10.7954C4.27241 10.6991 4.12663 10.6503 3.97861 10.6595C3.8306 10.6686 3.69193 10.735 3.59192 10.8445C3.49192 10.954 3.4384 11.0981 3.44268 11.2463C3.44696 11.3945 3.5087 11.5353 3.61486 11.6389L4.472 12.4217C4.58046 12.5207 4.72288 12.5742 4.86972 12.571C5.01655 12.5678 5.15652 12.5082 5.26057 12.4046L7.26057 10.4046C7.3677 10.2974 7.42788 10.1521 7.42788 10.0006C7.42788 9.84905 7.3677 9.70373 7.26057 9.59657M9.14286 10.2857C8.99131 10.2857 8.84596 10.3459 8.7388 10.4531C8.63163 10.5602 8.57143 10.7056 8.57143 10.8571C8.57143 11.0087 8.63163 11.154 8.7388 11.2612C8.84596 11.3684 8.99131 11.4286 9.14286 11.4286H12C12.1516 11.4286 12.2969 11.3684 12.4041 11.2612C12.5112 11.154 12.5714 11.0087 12.5714 10.8571C12.5714 10.7056 12.5112 10.5602 12.4041 10.4531C12.2969 10.3459 12.1516 10.2857 12 10.2857H9.14286ZM8.57143 5.14286C8.57143 5.29441 8.63163 5.43975 8.7388 5.54692C8.84596 5.65408 8.99131 5.71429 9.14286 5.71429H12C12.1516 5.71429 12.2969 5.65408 12.4041 5.54692C12.5112 5.43975 12.5714 5.29441 12.5714 5.14286C12.5714 4.99131 12.5112 4.84596 12.4041 4.7388C12.2969 4.63163 12.1516 4.57143 12 4.57143H9.14286C8.99131 4.57143 8.84596 4.63163 8.7388 4.7388C8.63163 4.84596 8.57143 4.99131 8.57143 5.14286Z" fill="black"/>
</svg>
